<svg width="200" height="200" viewBox="0 0 200 200" fill="none" xmlns="http://www.w3.org/2000/svg">
<g clip-path="url(#clip0_77_164)">
<path d="M96.9 0.822984C97.8442 0.283669 98.9127 0 100 0C101.087 0 102.156 0.283669 103.1 0.822984L149.975 27.6105C150.932 28.1569 151.727 28.9465 152.28 29.8992C152.833 30.8519 153.125 31.9338 153.125 33.0355V82.973L196.85 107.973C197.803 108.517 198.596 109.303 199.149 110.251C199.702 111.199 199.995 112.276 200 113.373V166.948C200 168.05 199.708 169.132 199.155 170.084C198.602 171.037 197.807 171.827 196.85 172.373L149.975 199.16C149.031 199.7 147.962 199.983 146.875 199.983C145.788 199.983 144.719 199.7 143.775 199.16L100 174.16L56.225 199.173C55.2808 199.712 54.2123 199.996 53.125 199.996C52.0377 199.996 50.9692 199.712 50.025 199.173L3.15 172.386C2.19341 171.839 1.39825 171.05 0.845069 170.097C0.291891 169.144 0.000355338 168.062 0 166.961L0 113.385C0.000355338 112.284 0.291891 111.202 0.845069 110.249C1.39825 109.296 2.19341 108.507 3.15 107.96L46.875 82.973V33.0355C46.8754 31.9338 47.1669 30.8519 47.7201 29.8992C48.2732 28.9465 49.0684 28.1569 50.025 27.6105L96.9 0.822984ZM53.125 93.798L18.85 113.385L53.125 132.973L87.4 113.385L53.125 93.798ZM93.75 124.16L59.375 143.798V182.973L93.75 163.336V124.16ZM106.25 163.336L140.625 182.973V143.798L106.25 124.16V163.336ZM112.6 113.385L146.875 132.973L181.15 113.385L146.875 93.798L112.6 113.385ZM140.625 82.973V43.798L106.25 63.448V102.623L140.625 82.973ZM93.75 102.623V63.448L59.375 43.798V82.973L93.75 102.623ZM65.725 33.0355L100 52.623L134.275 33.0355L100 13.448L65.725 33.0355ZM187.5 124.16L153.125 143.798V182.973L187.5 163.336V124.16ZM46.875 182.973V143.798L12.5 124.16V163.336L46.875 182.973Z" fill="black"/>
</g>
<defs>
<clipPath id="clip0_77_164">
<rect width="200" height="200" fill="white"/>
</clipPath>
</defs>
</svg>
